<svg id="Layer_1" data-name="Layer 1" xmlns="http://www.w3.org/2000/svg" viewBox="0 0 287.48 159.9"><path d="M296.35,288.41q1.68,5.89,8.18,5.89c.41,0,.61.79.61,2.36s-.2,2.36-.61,2.36c-3.12-.24-6.7-.35-10.77-.35s-7.78.11-11.17.35c-.4,0-.61-.79-.61-2.36s.21-2.36.61-2.36q3.92,0,3.91-3.3a10.3,10.3,0,0,0-.4-2.59L282,273.33a1.42,1.42,0,0,0-1.37-1.22H265.53q-.87,0-1.32,1.47l-4.42,14.88a7.59,7.59,0,0,0-.35,2.13q0,3.71,5.94,3.71c.37,0,.56.79.56,2.36s-.19,2.36-.56,2.36c-2.24-.24-5.39-.35-9.45-.35a90,90,0,0,0-9.29.35c-.37,0-.56-.79-.56-2.36s.19-2.36.56-2.36q6.2,0,8.23-6.65l15-49.16a9.18,9.18,0,0,0,.5-1.93,2.07,2.07,0,0,0-.58-1.12,2,2,0,0,1-.58-1.17c0-.5.44-.94,1.34-1.32a23.12,23.12,0,0,0,4.22-2.69q2.86-2.13,3.63-2.13c.88,0,1.47.81,1.78,2.41s1,4.4,2.18,8.36Zm-22.24-44c-.13-.54-.34-.81-.61-.81s-.52.27-.66.81l-6.5,22a3.64,3.64,0,0,0-.1.81c0,.38.27.56.81.56h11.89c.77,0,1.16-.37,1.16-1.12A2.58,2.58,0,0,0,280,266Z" transform="translate(-166.29 -223.15)"/><path d="M325.78,299.07a74,74,0,0,0-8.48-.4,82.93,82.93,0,0,0-9.29.4c-.41,0-.61-.64-.61-1.93s.2-1.93.61-1.93q4.26,0,4.26-3.4v-52.1q0-6.35-3.7-6.35c-.45,0-.66-.61-.66-1.83s.21-1.93.66-1.93q2,0,7.51-3.4a17,17,0,0,0,3.45-2.54,1.52,1.52,0,0,1,1.07-.51c.81,0,1.22.56,1.22,1.68q-.26,3.81-.25,8.53v58q0,3.81,4.21,3.81c.41,0,.61.65.61,1.93S326.19,299.07,325.78,299.07Z" transform="translate(-166.29 -223.15)"/><path d="M347.06,299.07a74,74,0,0,0-8.48-.4,83.26,83.26,0,0,0-9.3.4c-.4,0-.61-.64-.61-1.93s.21-1.93.61-1.93q4.28,0,4.27-3.4v-52.1q0-6.35-3.71-6.35-.66,0-.66-1.83c0-1.28.22-1.93.66-1.93,1.36,0,3.86-1.13,7.52-3.4a17,17,0,0,0,3.45-2.54,1.5,1.5,0,0,1,1.07-.51c.81,0,1.22.56,1.22,1.68q-.25,3.81-.26,8.53v58q0,3.81,4.22,3.81c.4,0,.61.65.61,1.93S347.46,299.07,347.06,299.07Z" transform="translate(-166.29 -223.15)"/><path d="M196.25,344.41q0,5.89,6.95,5.89c.38,0,.56.79.56,2.36s-.18,2.36-.56,2.36q-3.45-.36-11.88-.35T179,355c-.37,0-.56-.79-.56-2.36s.19-2.36.56-2.36q7.32,0,7.31-5.89V291.9c0-1-.35-1.47-1.06-1.47h-5.84c-2.34,0-4.43,1.22-6.27,3.68a15.13,15.13,0,0,0-2.77,9.37c0,.54-.69.81-2.06.81s-2.05-.27-2.05-.81V288.29c0-1.15.18-1.84.55-2.08a10.14,10.14,0,0,1,4-.51q7.6.32,20.13.31t21.1-.31c2.3,0,3.61.28,3.91.82a3.35,3.35,0,0,1,.36,1.77v15.19c0,.54-.7.81-2.09.81s-2.08-.27-2.08-.81q0-6.56-3.17-9.8t-6.22-3.25h-5.18c-.92,0-1.37.49-1.37,1.47Z" transform="translate(-166.29 -223.15)"/><path d="M246.08,333q0,10.62-5,16.81-4.83,6-13.35,6a15.94,15.94,0,0,1-12.7-6.19q-5.64-6.66-5.64-16.51a25.6,25.6,0,0,1,4.47-15q5.34-7.62,13.81-7.61,8.84,0,14.27,8A25.58,25.58,0,0,1,246.08,333Zm-10.31.31q0-9.34-2.9-14.83-2.13-4.11-5.12-4.11c-2.21,0-4.08,1.76-5.64,5.28a33.79,33.79,0,0,0-2.44,13.66q0,9.39,3,14.57c1.38,2.44,3.06,3.66,5,3.66q3.81,0,6.1-5.79A34.12,34.12,0,0,0,235.77,333.34Z" transform="translate(-166.29 -223.15)"/><path d="M287.44,361.83a19.42,19.42,0,0,1-6,14.21,23.26,23.26,0,0,1-17.12,7q-12.18,0-15.13-7.51a12.84,12.84,0,0,1-.81-4.68q0-4.11,4.16-8.42a18.68,18.68,0,0,1,3.25-2.59c.41-.24.61-.48.61-.72s-.22-.37-.66-.61a9.35,9.35,0,0,1-5.43-8.83q0-3.81,5.89-7,.66-.36.66-.66c0-.17-.24-.46-.71-.86a16.05,16.05,0,0,1-6.25-13.31,17.78,17.78,0,0,1,4.42-12.18,14.27,14.27,0,0,1,11.22-5.18,20.45,20.45,0,0,1,9,2.18,11.93,11.93,0,0,0,3.71,1.52h7.82c.44,0,.66.93.66,2.8,0,2-.22,3-.66,3h-3.71c-.85,0-1.27.49-1.27,1.48v4q0,8.58-4.82,13.71-4.22,4.47-11.23,4.47a27.72,27.72,0,0,1-4.31-.36,1.21,1.21,0,0,0-.92.36,4.29,4.29,0,0,0-1.52,2.89,3,3,0,0,0,1.63,2.64,6.89,6.89,0,0,0,3.55.81h10.31a21.69,21.69,0,0,1,7.82,1.07Q287.44,353.44,287.44,361.83ZM280.53,367q0-6.65-9.59-6.65H262.3a2.49,2.49,0,0,0-1.62.71,8.13,8.13,0,0,0-2.64,6.25,9.72,9.72,0,0,0,2.43,6.6A9.62,9.62,0,0,0,268,377q10.21,0,12.14-7.11A12,12,0,0,0,280.53,367Zm-8.88-38.79q0-9-2.9-12.29a3.88,3.88,0,0,0-3-1.47q-3,0-4.83,4.36a19.64,19.64,0,0,0-1.57,8q0,6.13,2.38,9.95c1.26,2,2.8,2.95,4.62,2.95q3.62,0,4.83-6.05A26.82,26.82,0,0,0,271.65,328.16Z" transform="translate(-166.29 -223.15)"/><path d="M318.92,323.59c0,2.54-1.21,3.81-3.65,3.81H299.63c-1,0-1.48.45-1.48,1.37q0,12,4.52,17a8.22,8.22,0,0,0,6.2,2.69,10.83,10.83,0,0,0,6.75-2.79q.81-.57,2,1.32c.71,1.18.92,2,.61,2.33a18.73,18.73,0,0,1-5.43,4.47,16.13,16.13,0,0,1-8.23,2.08q-5.48,0-9.85-5.53a27.43,27.43,0,0,1-5.89-17.78,25.57,25.57,0,0,1,4.37-14.77q5-7.26,11.63-7.26a13.34,13.34,0,0,1,11.47,6C318,319.54,318.92,321.9,318.92,323.59Zm-20.31-2.08c0,.88.51,1.32,1.52,1.32h8.23c1,0,1.52-.41,1.52-1.22a7.8,7.8,0,0,0-2.23-5.69,3.93,3.93,0,0,0-2.79-1.42,6,6,0,0,0-4.57,2.18A7.34,7.34,0,0,0,298.61,321.51Z" transform="translate(-166.29 -223.15)"/><path d="M347.41,350.1a13.5,13.5,0,0,1-11.12,5.73q-8.94-.09-10.25-9.29a24.72,24.72,0,0,1-.26-3.71V318.41c0-1.05-.42-1.58-1.27-1.58h-2.23c-.41,0-.61-.61-.61-1.82s.2-1.93.61-1.93q2.49,0,5.43-3a14.4,14.4,0,0,0,3.71-6.4c.13-.41.71-.42,1.72-.05,1.19.41,1.87.91,2,1.52v4.78c0,1.05.42,1.57,1.27,1.57h8.73c.41,0,.61.88.61,2.64s-.2,2.69-.61,2.69h-8.73c-.85,0-1.27.53-1.27,1.58v21.07c0,4.1.45,6.79,1.37,8.08a4,4,0,0,0,3.55,1.57c1.39,0,3.1-.79,5.13-2.39.31-.27.83.14,1.57,1.22S347.68,349.72,347.41,350.1Z" transform="translate(-166.29 -223.15)"/><path d="M391.1,355.07a77.28,77.28,0,0,0-9-.4,80.52,80.52,0,0,0-9.29.4c-.44,0-.66-.62-.66-1.88s.22-2,.66-2q4.21,0,4.21-3.25V326.48a14.16,14.16,0,0,0-1.83-7.06q-2-3.45-5-3.45a6.63,6.63,0,0,0-5.79,3.2,6.32,6.32,0,0,0-1.22,3.66V347.4q0,3.81,4.21,3.81c.41,0,.61.65.61,1.93s-.2,1.93-.61,1.93a73.73,73.73,0,0,0-8.48-.4,86.53,86.53,0,0,0-9.59.4c-.41,0-.61-.64-.61-1.93s.2-1.89.61-1.93c3,0,4.57-1.17,4.57-3.5v-52q0-6.34-3.71-6.35-.66,0-.66-1.83c0-1.28.22-1.93.66-1.93,1.35,0,3.86-1.13,7.51-3.4a17.1,17.1,0,0,0,3.46-2.54,1.61,1.61,0,0,1,1.17-.51c.71,0,1.08.46,1.11,1.37,0,2.88-.12,5.83-.25,8.84V313c0,.78.15,1.17.46,1.17a1.5,1.5,0,0,0,.91-.56,12,12,0,0,1,8.58-3.09q7.32,0,11,6.9a19.13,19.13,0,0,1,2.24,9v21q.3,3.81,4.72,3.81c.44,0,.66.63.66,1.88S391.54,355.07,391.1,355.07Z" transform="translate(-166.29 -223.15)"/><path d="M421.91,323.59q0,3.81-3.65,3.81H402.62c-1,0-1.48.45-1.48,1.37q0,12,4.52,17a8.21,8.21,0,0,0,6.2,2.69,10.83,10.83,0,0,0,6.75-2.79q.81-.57,2,1.32c.71,1.18.92,2,.61,2.33a18.73,18.73,0,0,1-5.43,4.47,16.16,16.16,0,0,1-8.23,2.08q-5.49,0-9.85-5.53a27.43,27.43,0,0,1-5.89-17.78,25.5,25.5,0,0,1,4.37-14.77q5-7.26,11.62-7.26a13.35,13.35,0,0,1,11.48,6C421,319.54,421.91,321.9,421.91,323.59Zm-20.31-2.08c0,.88.51,1.32,1.52,1.32h8.23c1,0,1.52-.41,1.52-1.22a7.8,7.8,0,0,0-2.23-5.69,3.94,3.94,0,0,0-2.79-1.42,6,6,0,0,0-4.57,2.18A7.34,7.34,0,0,0,401.6,321.51Z" transform="translate(-166.29 -223.15)"/><path d="M453.77,316.48A6.73,6.73,0,0,1,452,321.3a3.23,3.23,0,0,1-2.49,1.22q-2,0-4.11-2.59a2.68,2.68,0,0,0-2-1.17c-1.15,0-2.2,1-3.15,2.95a14.92,14.92,0,0,0-1.32,6.45V347.4q0,3.81,4.21,3.81c.41,0,.61.65.61,1.93s-.2,1.93-.61,1.93a73.85,73.85,0,0,0-8.48-.4,83.06,83.06,0,0,0-9.29.4c-.41,0-.61-.64-.61-1.93s.2-1.93.61-1.93c2.84,0,4.27-1.27,4.27-3.81V326.79q0-6.77-3.71-6.76-.66,0-.66-1.83c0-1.28.22-1.93.66-1.93,1.35,0,3.93-1.18,7.72-3.55a20.47,20.47,0,0,0,3.25-2.34,1.51,1.51,0,0,1,1.16-.55,1,1,0,0,1,1.12,1l-.25,3.81c0,.78.18,1.17.53,1.17s.86-.44,1.5-1.32c1.83-2.68,4.1-4,6.8-4a5.88,5.88,0,0,1,5.95,6Z" transform="translate(-166.29 -223.15)"/></svg>