<svg xmlns="http://www.w3.org/2000/svg" viewBox="0 0 287.48 159.9"><defs><style>.cls-1{fill:#fff;}</style></defs><g id="Layer_2" data-name="Layer 2"><g id="Layer_1-2" data-name="Layer 1"><path class="cls-1" d="M130.07,65.25q1.68,5.9,8.17,5.89c.41,0,.61.79.61,2.37s-.2,2.36-.61,2.36q-4.67-.36-10.76-.36c-4.06,0-7.79.12-11.17.36-.41,0-.61-.79-.61-2.36s.2-2.37.61-2.37c2.6,0,3.91-1.1,3.91-3.3a10.44,10.44,0,0,0-.41-2.59l-4.06-15.08A1.44,1.44,0,0,0,114.38,49H99.24c-.57,0-1,.49-1.32,1.48L93.51,65.3a7.76,7.76,0,0,0-.36,2.14q0,3.7,5.94,3.7c.37,0,.56.79.56,2.37s-.19,2.36-.56,2.36a94.15,94.15,0,0,0-9.44-.36,89.68,89.68,0,0,0-9.3.36c-.37,0-.56-.79-.56-2.36s.19-2.37.56-2.37q6.2,0,8.23-6.65l15-49.15a8.82,8.82,0,0,0,.51-1.93,2.08,2.08,0,0,0-.59-1.12,2.1,2.1,0,0,1-.58-1.17q0-.76,1.35-1.32a23.73,23.73,0,0,0,4.21-2.69Q111.38,5,112.14,5c.88,0,1.47.8,1.78,2.41s1,4.39,2.18,8.35Zm-22.24-44c-.14-.54-.34-.82-.61-.82s-.53.28-.66.82l-6.5,22a3.63,3.63,0,0,0-.11.81c0,.37.28.56.82.56h11.88c.78,0,1.17-.37,1.17-1.12a2.52,2.52,0,0,0-.15-.76Z"/><path class="cls-1" d="M159.49,75.92a73.44,73.44,0,0,0-8.48-.41,82.76,82.76,0,0,0-9.29.41c-.41,0-.61-.64-.61-1.93s.2-1.93.61-1.93c2.84,0,4.27-1.14,4.27-3.4V16.55q0-6.35-3.71-6.34-.66,0-.66-1.83c0-1.29.22-1.93.66-1.93q2,0,7.52-3.4A17.34,17.34,0,0,0,153.25.51,1.5,1.5,0,0,1,154.31,0c.82,0,1.22.56,1.22,1.68-.17,2.53-.25,5.38-.25,8.53v58q0,3.81,4.21,3.81c.41,0,.61.64.61,1.93S159.9,75.92,159.49,75.92Z"/><path class="cls-1" d="M180.77,75.92a73.56,73.56,0,0,0-8.48-.41,82.64,82.64,0,0,0-9.29.41c-.41,0-.61-.64-.61-1.93s.2-1.93.61-1.93c2.84,0,4.26-1.14,4.26-3.4V16.55q0-6.35-3.7-6.34-.66,0-.66-1.83c0-1.29.22-1.93.66-1.93,1.35,0,3.86-1.13,7.51-3.4A17.82,17.82,0,0,0,174.53.51,1.48,1.48,0,0,1,175.59,0c.81,0,1.22.56,1.22,1.68-.17,2.53-.25,5.38-.25,8.53v58q0,3.81,4.21,3.81c.41,0,.61.64.61,1.93S181.18,75.92,180.77,75.92Z"/><path class="cls-1" d="M30,121.25q0,5.9,7,5.89c.37,0,.56.79.56,2.37s-.19,2.36-.56,2.36c-2.3-.24-6.27-.36-11.88-.36s-9.72.12-12.29.36c-.38,0-.56-.79-.56-2.36s.18-2.37.56-2.37q7.31,0,7.31-5.89V68.75c0-1-.36-1.48-1.07-1.48H13.15q-3.49,0-6.27,3.69a15.16,15.16,0,0,0-2.77,9.36c0,.55-.68.82-2.05.82S0,80.87,0,80.32V65.14C0,64,.19,63.3.56,63.06a10.08,10.08,0,0,1,4-.51q7.62.3,20.14.31t21.09-.31c2.31,0,3.61.27,3.91.81a3.41,3.41,0,0,1,.36,1.78V80.32c0,.55-.69.82-2.08.82s-2.08-.27-2.08-.82q0-6.54-3.18-9.8c-2.11-2.16-4.19-3.25-6.22-3.25H31.33c-.91,0-1.37.49-1.37,1.48Z"/><path class="cls-1" d="M79.79,109.88q0,10.62-5,16.81-4.82,6-13.35,6a16,16,0,0,1-12.7-6.2q-5.62-6.65-5.63-16.5A25.58,25.58,0,0,1,47.6,95q5.32-7.62,13.81-7.62,8.84,0,14.27,8A25.65,25.65,0,0,1,79.79,109.88Zm-10.31.3c0-6.22-1-11.17-2.89-14.82q-2.13-4.12-5.13-4.12-3.3,0-5.64,5.28a34,34,0,0,0-2.43,13.66c0,6.27,1,11.12,3,14.58,1.39,2.44,3.06,3.65,5,3.65q3.81,0,6.09-5.79A34.08,34.08,0,0,0,69.48,110.18Z"/><path class="cls-1" d="M121.15,138.67a19.39,19.39,0,0,1-6,14.22,23.29,23.29,0,0,1-17.11,7q-12.19,0-15.13-7.52a12.57,12.57,0,0,1-.82-4.67q0-4.11,4.17-8.43a18.77,18.77,0,0,1,3.25-2.59c.4-.24.61-.47.61-.71s-.22-.37-.66-.61A9.35,9.35,0,0,1,84,126.54q0-3.81,5.89-7,.66-.36.66-.66c0-.17-.23-.46-.71-.87a16,16,0,0,1-6.24-13.3A17.85,17.85,0,0,1,88,92.51a14.33,14.33,0,0,1,11.23-5.18,20.5,20.5,0,0,1,9,2.19A12.45,12.45,0,0,0,112,91h7.82q.66,0,.66,2.79c0,2-.22,3-.66,3h-3.7c-.85,0-1.27.49-1.27,1.47v4q0,8.58-4.83,13.71-4.22,4.47-11.22,4.47a29.06,29.06,0,0,1-4.32-.35,1.14,1.14,0,0,0-.91.35,4.27,4.27,0,0,0-1.52,2.9A3,3,0,0,0,93.63,126a6.92,6.92,0,0,0,3.56.81h10.3a21.65,21.65,0,0,1,7.82,1.07Q121.16,130.3,121.15,138.67Zm-6.9,5.13q0-6.65-9.6-6.65H96a2.46,2.46,0,0,0-1.63.71,8.17,8.17,0,0,0-2.64,6.25,9.72,9.72,0,0,0,2.44,6.6,9.59,9.59,0,0,0,7.57,3.15q10.2,0,12.13-7.11A11.63,11.63,0,0,0,114.25,143.8ZM105.36,105q0-9-2.89-12.29a3.91,3.91,0,0,0-3-1.47q-2.94,0-4.82,4.37a19.59,19.59,0,0,0-1.58,8,18.54,18.54,0,0,0,2.39,10q1.88,2.94,4.62,2.94,3.6,0,4.82-6A26.92,26.92,0,0,0,105.36,105Z"/><path class="cls-1" d="M152.64,100.43q0,3.81-3.66,3.81H133.34c-1,0-1.47.46-1.47,1.37q0,12,4.52,17a8.18,8.18,0,0,0,6.19,2.7,10.89,10.89,0,0,0,6.76-2.8q.81-.56,2,1.32c.71,1.19.91,2,.61,2.34a18.65,18.65,0,0,1-5.44,4.47,16.1,16.1,0,0,1-8.22,2.08q-5.49,0-9.85-5.54a27.39,27.39,0,0,1-5.9-17.77,25.62,25.62,0,0,1,4.37-14.78q5-7.26,11.63-7.26a13.37,13.37,0,0,1,11.48,6Q152.64,97.9,152.64,100.43Zm-20.31-2.08c0,.88.5,1.32,1.52,1.32h8.23c1,0,1.52-.4,1.52-1.22a7.81,7.81,0,0,0-2.24-5.68,3.92,3.92,0,0,0-2.79-1.43A6,6,0,0,0,134,93.53,7.31,7.31,0,0,0,132.33,98.35Z"/><path class="cls-1" d="M181.13,126.94A13.49,13.49,0,0,1,170,132.68q-8.94-.1-10.26-9.29a24.89,24.89,0,0,1-.25-3.71V95.25c0-1-.43-1.57-1.27-1.57H156c-.4,0-.61-.61-.61-1.83s.21-1.93.61-1.93q2.49,0,5.44-3a14.43,14.43,0,0,0,3.7-6.4c.14-.41.71-.43,1.73,0,1.18.4,1.86.91,2,1.52v4.77c0,1,.42,1.58,1.27,1.58h8.73c.41,0,.61.88.61,2.64s-.2,2.69-.61,2.69h-8.73c-.85,0-1.27.53-1.27,1.57v21.08c0,4.09.46,6.79,1.37,8.07a4.07,4.07,0,0,0,3.56,1.58q2.07,0,5.12-2.39c.31-.27.83.14,1.58,1.22S181.4,126.57,181.13,126.94Z"/><path class="cls-1" d="M224.81,131.92a76.65,76.65,0,0,0-9-.41,80.2,80.2,0,0,0-9.29.41c-.44,0-.66-.63-.66-1.88s.22-2,.66-2q4.22,0,4.22-3.25V103.33a14.16,14.16,0,0,0-1.83-7.06q-2-3.45-5-3.45a6.61,6.61,0,0,0-5.79,3.2,6.39,6.39,0,0,0-1.22,3.65v24.58q0,3.81,4.22,3.81c.4,0,.61.64.61,1.93s-.21,1.93-.61,1.93a73.68,73.68,0,0,0-8.48-.41,86.39,86.39,0,0,0-9.6.41c-.41,0-.61-.64-.61-1.93s.2-1.9.61-1.93q4.58,0,4.57-3.51v-52q0-6.35-3.71-6.34-.66,0-.66-1.83c0-1.29.22-1.93.66-1.93,1.36,0,3.86-1.13,7.52-3.4a17.34,17.34,0,0,0,3.45-2.54,1.61,1.61,0,0,1,1.17-.51c.71,0,1.08.46,1.12,1.37,0,2.88-.12,5.82-.26,8.84V89.82c0,.78.16,1.17.46,1.17a1.52,1.52,0,0,0,.91-.56,12.06,12.06,0,0,1,8.59-3.1q7.31,0,11,6.91a19.1,19.1,0,0,1,2.24,9v21c.2,2.54,1.78,3.81,4.72,3.81.44,0,.66.63.66,1.88S225.25,131.92,224.81,131.92Z"/><path class="cls-1" d="M255.63,100.43q0,3.81-3.66,3.81H236.33c-1,0-1.47.46-1.47,1.37q0,12,4.52,17a8.16,8.16,0,0,0,6.19,2.7,10.89,10.89,0,0,0,6.76-2.8q.81-.56,2,1.32c.71,1.19.91,2,.61,2.34a18.78,18.78,0,0,1-5.44,4.47,16.1,16.1,0,0,1-8.22,2.08q-5.49,0-9.86-5.54a27.44,27.44,0,0,1-5.89-17.77,25.62,25.62,0,0,1,4.37-14.78q5-7.26,11.63-7.26a13.37,13.37,0,0,1,11.48,6Q255.63,97.9,255.63,100.43Zm-20.32-2.08q0,1.32,1.53,1.32h8.22c1,0,1.53-.4,1.53-1.22a7.81,7.81,0,0,0-2.24-5.68,3.92,3.92,0,0,0-2.79-1.43A6,6,0,0,0,237,93.53,7.32,7.32,0,0,0,235.31,98.35Z"/><path class="cls-1" d="M287.48,93.32a6.76,6.76,0,0,1-1.73,4.83,3.22,3.22,0,0,1-2.48,1.22c-1.36,0-2.73-.87-4.12-2.59a2.65,2.65,0,0,0-2-1.17q-1.73,0-3.15,2.94A15,15,0,0,0,272.7,105v19.25q0,3.81,4.22,3.81c.4,0,.61.64.61,1.93s-.21,1.93-.61,1.93a73.68,73.68,0,0,0-8.48-.41,82.84,82.84,0,0,0-9.3.41c-.4,0-.61-.64-.61-1.93s.21-1.93.61-1.93q4.28,0,4.27-3.81V103.63q0-6.75-3.71-6.75-.66,0-.66-1.83c0-1.29.22-1.93.66-1.93q2,0,7.72-3.55a20.63,20.63,0,0,0,3.25-2.34,1.56,1.56,0,0,1,1.17-.56,1.05,1.05,0,0,1,1.12,1l-.26,3.81c0,.78.18,1.16.54,1.16s.85-.44,1.49-1.32q2.75-4,6.81-4a5.9,5.9,0,0,1,5.94,6Z"/></g></g></svg>